<svg data-v-0dd9719b="" version="1.0" xmlns="http://www.w3.org/2000/svg" xmlns:xlink="http://www.w3.org/1999/xlink" width="100%" height="100%" viewBox="0 0 340.000000 250.000000" preserveAspectRatio="xMidYMid meet" color-interpolation-filters="sRGB" style="margin: auto;">  <rect data-v-0dd9719b="" x="0" y="0" width="100%" height="100%" fill="url(#watermark)" fill-opacity="1" class="watermarklayer"></rect> <g data-v-0dd9719b="" fill="#7afbf6" class="iconblsvg-g iconsvg" transform="translate(43.600425720214844,72.76099014282227)"><g class="tp-name"><g data-gra="path-name" transform="translate(0, 21.66382553100586)"><g transform="scale(1)"><path d="M16.06-12.04L16.06-12.04Q14.85-9.68 13.45-8.14 12.04-6.6 10.62-5.72 9.19-4.84 7.81-4.43 6.43-4.01 5.22-3.93 4.01-3.85 3.14-3.9L3.14-3.9Q3.25-3.46 3.63-2.31L3.63-2.31Q4.24-0.55 5.06 2.17 5.88 4.9 6.46 7.75 7.04 10.62 6.88 12.76L6.88 12.76Q6.82 13.92 6.49 15.4 6.16 16.89 5.5 18.26 4.84 19.64 3.69 20.52 2.53 21.39 0.82 21.29L0.82 21.29Q-1.16 21.18-2.12 19.86-3.08 18.54-3.22 15.68-3.35 12.81-2.78 8-2.2 3.19-1.04-3.85L-1.04-3.85Q-0.28-8.69 0.69-12.84 1.65-17 2.89-20.05 4.13-23.1 5.78-24.61 7.42-26.13 9.52-25.68L9.52-25.68Q9.68-25.68 10.09-25.49 10.51-25.3 10.89-24.89 11.28-24.48 11.28-23.71L11.28-23.71Q11.22-22.88 10.75-20.87 10.29-18.86 9.32-16.23 8.36-13.59 6.85-10.95 5.33-8.3 3.19-6.16L3.19-6.16Q3.19-6.05 3.16-5.97 3.14-5.88 3.14-5.83 3.14-5.78 3.14-5.75 3.14-5.72 3.14-5.69 3.14-5.67 3.14-5.67 3.14-5.67 3.14-5.67L3.14-5.67Q3.14-5.67 3.11-5.64 3.08-5.61 3.08-5.61 3.08-5.61 3.08-5.58 3.08-5.55 3.08-5.5 3.08-5.45 3.05-5.36 3.02-5.28 3.02-5.17L3.02-5.17Q4.4-5 5.94-5.17 7.48-5.33 9.07-6.08 10.67-6.82 12.18-8.36 13.7-9.9 15.02-12.48L15.02-12.48Q15.29-12.93 15.62-13.01 15.95-13.09 16.14-12.87 16.34-12.65 16.06-12.04ZM3.52-8.09L3.52-8.09Q5.17-9.79 6.46-12.15 7.75-14.52 8.61-16.97 9.46-19.41 9.87-21.34 10.29-23.27 10.23-24.09L10.23-24.09Q9.46-24.59 8.61-23.4 7.75-22.22 6.9-20.05 6.05-17.88 5.33-15.43 4.62-12.98 4.15-10.97 3.69-8.96 3.52-8.09ZM2.64 19.75L2.64 19.75Q3.58 19.2 4.15 18.18 4.73 17.16 5.03 15.89 5.33 14.63 5.45 13.42 5.55 12.21 5.5 11.22L5.5 11.22Q5.33 8.53 4.87 6.19 4.4 3.85 3.74 1.9 3.08-0.06 2.42-1.71L2.42-1.71Q1.32 6 1.04 10.84 0.77 15.68 1.21 17.88 1.65 20.07 2.64 19.75ZM24.42-12.76L24.42-12.76Q24.48-13.53 24.37-14.85 24.26-16.17 23.93-17.24 23.59-18.32 23.05-18.43L23.05-18.43Q22.55-18.48 22.52-17.82 22.5-17.16 22.74-16.2 22.99-15.23 23.46-14.3 23.93-13.37 24.42-12.76ZM25.41-12.1L25.41-12.1Q26.9-11.33 27.97-11.49 29.04-11.66 29.92-12.87L29.92-12.87Q30.03-12.98 30.14-13.06 30.25-13.14 30.39-13.14 30.53-13.14 30.58-13.09L30.58-13.09Q30.69-13.09 30.77-13.01 30.86-12.93 30.88-12.79 30.91-12.65 30.86-12.43L30.86-12.43Q30.2-11.44 29.18-10.95 28.16-10.45 27.12-10.48 26.07-10.51 25.3-11.05L25.3-11.05Q24.86-6.6 23.84-4.1 22.83-1.59 21.29-0.71 19.75 0.17 17.77-0.22L17.77-0.22Q16.89-0.39 16.28-0.8 15.68-1.21 15.13-2.09L15.13-2.09Q14.41-3.35 14.27-5.31 14.13-7.26 14.46-9.46 14.79-11.66 15.4-13.59 16-15.51 16.8-16.66 17.6-17.82 18.43-17.77L18.43-17.77Q19.14-17.6 19.88-17.11 20.63-16.61 21.15-16.11 21.67-15.62 21.67-15.51L21.67-15.51Q20.95-14.19 20.24-12.15 19.52-10.12 19.03-7.95 18.54-5.78 18.43-4.07 18.32-2.37 18.81-1.76L18.81-1.76Q19.09-1.49 19.5-1.38 19.91-1.26 20.43-1.46 20.95-1.65 21.62-2.37L21.62-2.37Q22.16-3.08 22.77-4.4 23.38-5.72 23.82-7.54 24.26-9.35 24.37-11.61L24.37-11.61Q23.27-12.48 22.61-13.8 21.95-15.13 21.75-16.42 21.56-17.71 21.78-18.59 22-19.47 22.61-19.47L22.61-19.47Q22.61-19.47 22.83-19.44 23.05-19.41 23.38-19.25 23.7-19.09 24.06-18.7 24.42-18.32 24.75-17.6L24.75-17.6Q25.08-16.94 25.27-15.26 25.46-13.59 25.41-12.1ZM45.92-12.15L45.92-12.15Q45.32-10.01 44.41-7.73 43.51-5.45 42.38-3.49 41.25-1.54 40.09-0.28 38.94 0.99 37.9 1.1L37.9 1.1Q37.73 1.1 37.62 1.16L37.62 1.16Q37.4 1.21 37.13 1.24 36.85 1.26 36.47 1.21L36.47 1.21Q35.09 0.99 34.59-0.19 34.1-1.38 34.18-3.16 34.27-4.95 34.68-7.04 35.09-9.13 35.59-11.17L35.59-11.17Q35.97-12.81 36.25-14.24L36.25-14.24Q35.48-13.59 34.7-13.12 33.94-12.65 33.08-12.43 32.23-12.21 31.13-12.38L31.13-12.38Q29.75-12.6 28.74-13.7 27.72-14.79 27.28-16.34 26.84-17.88 27.28-19.47 27.72-21.07 29.21-22.27L29.21-22.27Q29.64-22.71 30.39-22.63 31.13-22.55 31.63-22L31.63-22Q32.23-21.23 32.31-19.86 32.4-18.48 32.17-16.89 31.96-15.29 31.57-13.75L31.57-13.75Q32.12-13.37 32.92-13.59 33.72-13.8 34.51-14.33 35.31-14.85 35.97-15.43 36.63-16 36.96-16.34L36.96-16.34Q38.39-17.55 39.22-17.68 40.04-17.82 40.37-17.11L40.37-17.11Q40.37-16.89 39.82-14.9L39.82-14.9Q39.38-13.26 38.83-11 38.28-8.74 37.9-6.52 37.51-4.29 37.51-2.69 37.51-1.1 38.23-0.71L38.23-0.71Q38.23-0.71 38.25-0.71 38.28-0.71 38.28-0.71 38.28-0.71 38.31-0.71 38.34-0.71 38.39-0.71L38.39-0.71Q39.11-0.71 39.98-1.79 40.87-2.86 41.72-4.51 42.57-6.16 43.28-7.87 44-9.57 44.47-10.81 44.94-12.04 44.99-12.38L44.99-12.38Q45.1-12.71 45.27-12.81 45.43-12.93 45.65-12.87L45.65-12.87Q45.92-12.81 45.95-12.6 45.98-12.38 45.92-12.15ZM30.53-21.61L30.53-21.61Q29.54-21.73 29.21-20.96 28.88-20.18 29.07-18.95 29.26-17.71 29.73-16.5 30.2-15.29 30.8-14.46L30.8-14.46Q31.19-16.39 31.38-17.85 31.57-19.3 31.41-20.27 31.24-21.23 30.53-21.61Z" transform="translate(3.244142770767212, 39.8531494140625)"></path></g></g> <g transform="translate(52.20414352416992, 0)"><g><g class="imagesvg"><g><rect fill="#7afbf6" fill-opacity="0" stroke-width="2" x="0" y="0" width="80.7552415262146" height="104.47802096697623" class="image-rect"></rect> <svg x="0" y="0" width="80.7552415262146" height="104.47802096697623" filtersec="colorsb7695423756" class="image-svg-svg primary" style="overflow: visible;"><svg xmlns="http://www.w3.org/2000/svg" viewBox="0.0035181045532226562 0 92.28955841064453 119.39999389648438"><g fill-rule="evenodd"><path d="M49.56 0c-33.34 14.8-36.93 73.47-24.3 102.81C34.54 66.19 65.53 38.41 49.56 0z" fill="#333333"></path><path d="M11.7 1.1c-20.46 9.53-10.27 40 1.75 62.16C13.84 41 21.29 24.27 11.7 1.1z" fill="#f7db54"></path><path d="M90.54 36.06c-33 3.93-60.49 50-62.85 83.34C55.81 93.8 101.85 81 90.54 36.06z" fill="#7afbf6"></path></g></svg></svg> <!----></g></g></g></g> <g data-gra="path-name-1" fill="#e733ec" transform="translate(135.9593849182129, 21.66382553100586)"><g transform="scale(1)"><path d="M16.06-12.04L16.06-12.04Q14.85-9.68 13.45-8.14 12.04-6.6 10.62-5.72 9.19-4.84 7.81-4.43 6.43-4.01 5.22-3.93 4.01-3.85 3.14-3.9L3.14-3.9Q3.25-3.46 3.63-2.31L3.63-2.31Q4.24-0.55 5.06 2.17 5.88 4.9 6.46 7.75 7.04 10.62 6.88 12.76L6.88 12.76Q6.82 13.92 6.49 15.4 6.16 16.89 5.5 18.26 4.84 19.64 3.69 20.52 2.53 21.39 0.82 21.29L0.82 21.29Q-1.16 21.18-2.12 19.86-3.08 18.54-3.22 15.68-3.35 12.81-2.78 8-2.2 3.19-1.04-3.85L-1.04-3.85Q-0.28-8.69 0.69-12.84 1.65-17 2.89-20.05 4.13-23.1 5.78-24.61 7.42-26.13 9.52-25.68L9.52-25.68Q9.68-25.68 10.09-25.49 10.51-25.3 10.89-24.89 11.28-24.48 11.28-23.71L11.28-23.71Q11.22-22.88 10.75-20.87 10.29-18.86 9.32-16.23 8.36-13.59 6.85-10.95 5.33-8.3 3.19-6.16L3.19-6.16Q3.19-6.05 3.16-5.97 3.14-5.88 3.14-5.83 3.14-5.78 3.14-5.75 3.14-5.72 3.14-5.69 3.14-5.67 3.14-5.67 3.14-5.67 3.14-5.67L3.14-5.67Q3.14-5.67 3.11-5.64 3.08-5.61 3.08-5.61 3.08-5.61 3.08-5.58 3.08-5.55 3.08-5.5 3.08-5.45 3.05-5.36 3.02-5.28 3.02-5.17L3.02-5.17Q4.4-5 5.94-5.17 7.48-5.33 9.07-6.08 10.67-6.82 12.18-8.36 13.7-9.9 15.02-12.48L15.02-12.48Q15.29-12.93 15.62-13.01 15.95-13.09 16.14-12.87 16.34-12.65 16.06-12.04ZM3.52-8.09L3.52-8.09Q5.17-9.79 6.46-12.15 7.75-14.52 8.61-16.97 9.46-19.41 9.87-21.34 10.29-23.27 10.23-24.09L10.23-24.09Q9.46-24.59 8.61-23.4 7.75-22.22 6.9-20.05 6.05-17.88 5.33-15.43 4.62-12.98 4.15-10.97 3.69-8.96 3.52-8.09ZM2.64 19.75L2.64 19.75Q3.58 19.2 4.15 18.18 4.73 17.16 5.03 15.89 5.33 14.63 5.45 13.42 5.55 12.21 5.5 11.22L5.5 11.22Q5.33 8.53 4.87 6.19 4.4 3.85 3.74 1.9 3.08-0.06 2.42-1.71L2.42-1.71Q1.32 6 1.04 10.84 0.77 15.68 1.21 17.88 1.65 20.07 2.64 19.75ZM30.86-12.15L30.86-12.15Q30.25-10.01 29.34-7.73 28.44-5.45 27.31-3.49 26.18-1.54 25.02-0.28 23.87 0.99 22.83 1.1L22.83 1.1Q22.66 1.1 22.55 1.16L22.55 1.16Q22.33 1.21 22.05 1.24 21.78 1.26 21.39 1.21L21.39 1.21Q20.02 0.99 19.52-0.19 19.03-1.38 19.11-3.16 19.2-4.95 19.61-7.04 20.02-9.13 20.52-11.17L20.52-11.17Q20.9-12.81 21.18-14.24L21.18-14.24Q20.41-13.59 19.64-13.12 18.87-12.65 18.01-12.43 17.16-12.21 16.06-12.38L16.06-12.38Q14.69-12.6 13.67-13.7 12.65-14.79 12.21-16.34 11.77-17.88 12.21-19.47 12.65-21.07 14.13-22.27L14.13-22.27Q14.58-22.71 15.32-22.63 16.06-22.55 16.55-22L16.55-22Q17.16-21.23 17.24-19.86 17.32-18.48 17.11-16.89 16.89-15.29 16.5-13.75L16.5-13.75Q17.05-13.37 17.85-13.59 18.64-13.8 19.44-14.33 20.24-14.85 20.9-15.43 21.56-16 21.89-16.34L21.89-16.34Q23.32-17.55 24.15-17.68 24.97-17.82 25.3-17.11L25.3-17.11Q25.3-16.89 24.75-14.9L24.75-14.9Q24.31-13.26 23.76-11 23.21-8.74 22.83-6.52 22.44-4.29 22.44-2.69 22.44-1.1 23.16-0.71L23.16-0.71Q23.16-0.71 23.18-0.71 23.21-0.71 23.21-0.71 23.21-0.71 23.24-0.71 23.27-0.71 23.32-0.71L23.32-0.71Q24.04-0.71 24.91-1.79 25.8-2.86 26.65-4.51 27.5-6.16 28.21-7.87 28.93-9.57 29.4-10.81 29.87-12.04 29.92-12.38L29.92-12.38Q30.03-12.71 30.2-12.81 30.36-12.93 30.58-12.87L30.58-12.87Q30.86-12.81 30.88-12.6 30.91-12.38 30.86-12.15ZM15.46-21.61L15.46-21.61Q14.46-21.73 14.13-20.96 13.8-20.18 14-18.95 14.19-17.71 14.66-16.5 15.13-15.29 15.73-14.46L15.73-14.46Q16.12-16.39 16.31-17.85 16.5-19.3 16.34-20.27 16.17-21.23 15.46-21.61ZM51.31-13.09L51.31-13.09Q51.37-13.2 51.51-13.72 51.64-14.24 51.62-14.79 51.59-15.35 51.2-15.68L51.2-15.68Q50.88-15.89 50.55-15.84 50.22-15.79 49.97-15.62 49.72-15.46 49.55-15.29L49.55-15.29Q49.17-14.9 48.62-14.03 48.07-13.14 47.6-12.24 47.13-11.33 46.97-10.78L46.97-10.78Q48.23-10.34 49.09-10.64 49.94-10.95 50.46-11.63 50.98-12.32 51.31-13.09ZM57.09-12.48L57.09-12.48Q57.2-12.76 57.36-12.9 57.53-13.04 57.75-12.98L57.75-12.98Q58.19-12.93 58.02-12.27L58.02-12.27Q56.98-9.24 55.69-6.76 54.39-4.29 52.83-2.58 51.26-0.88 49.36-0.19 47.47 0.49 45.27 0L45.27 0Q43.5-0.44 42.65-2.06 41.8-3.69 41.85-6.19 41.91-8.69 42.9-11.71L42.9-11.71Q43.56-13.64 44.66-15.07 45.76-16.5 47.11-17.13 48.45-17.77 49.88-17.38L49.88-17.38Q50.88-17.11 51.62-16.5 52.36-15.89 52.55-14.9 52.74-13.92 52.14-12.54L52.14-12.54Q51.75-11.66 51.04-10.86 50.33-10.06 49.2-9.68 48.07-9.29 46.53-9.73L46.53-9.73Q45.92-7.59 45.73-6.16 45.54-4.73 45.59-3.82 45.65-2.92 45.92-2.39 46.2-1.87 46.47-1.59L46.47-1.59Q47.58-0.77 48.87-1.16 50.16-1.54 51.45-2.78 52.74-4.01 53.9-5.72 55.05-7.42 55.91-9.21 56.76-11 57.09-12.48ZM38.88-15.95L38.88-15.95Q38.94-16.06 39.08-16.58 39.21-17.11 39.19-17.66 39.16-18.21 38.77-18.54L38.77-18.54Q38.45-18.75 38.11-18.7 37.78-18.64 37.54-18.48 37.29-18.32 37.13-18.15L37.13-18.15Q36.74-17.77 36.19-16.72 35.64-15.68 35.17-14.57 34.7-13.47 34.54-12.93L34.54-12.93Q35.53-12.6 36.22-12.79 36.91-12.98 37.43-13.53 37.95-14.08 38.31-14.74 38.66-15.4 38.88-15.95ZM43.23-12.48L43.23-12.48Q43.34-12.76 43.5-12.9 43.67-13.04 43.89-12.98L43.89-12.98Q44.33-12.93 44.16-12.27L44.16-12.27Q43.12-9.24 41.83-6.6 40.53-3.96 39.02-2.06 37.51-0.17 35.89 0.66 34.27 1.49 32.61 0.94L32.61 0.94Q30.69 0.22 29.75-1.35 28.82-2.92 28.65-4.87 28.49-6.82 28.76-8.8 29.04-10.78 29.48-12.35 29.92-13.92 30.25-14.69L30.25-14.69Q31.24-16.94 32.5-18.29 33.77-19.64 35.06-20.1 36.35-20.57 37.45-20.24L37.45-20.24Q38.45-19.96 39.19-19.36 39.93-18.75 40.12-17.77 40.31-16.77 39.71-15.4L39.71-15.4Q39.44-14.74 38.97-14 38.5-13.26 37.81-12.65 37.13-12.04 36.19-11.8 35.25-11.55 34.1-11.88L34.1-11.88Q33.27-9.73 32.81-7.4 32.34-5.06 32.48-3.16 32.61-1.26 33.6-0.44L33.6-0.44Q34.76 0.28 36.22-0.77 37.67-1.81 39.13-3.88 40.59-5.94 41.69-8.28 42.79-10.62 43.23-12.48ZM63.36-7.21L63.36-7.21Q63.63-9.57 63.97-11.66L63.97-11.66Q64.19-13.14 64.41-14.96L64.41-14.96Q63.63-16.23 62.67-16.06 61.71-15.89 60.75-14.41 59.78-12.93 59.07-10.23L59.07-10.23Q58.52-7.92 58.47-6.35 58.41-4.79 58.8-3.9L58.8-3.9Q59.4-2.81 60.03-2.83 60.66-2.86 61.3-3.58 61.93-4.29 62.45-5.28 62.98-6.27 63.36-7.21ZM74.25-38.72L74.25-38.72Q73.81-39.05 73.34-38.12 72.88-37.18 72.41-35.42 71.94-33.66 71.47-31.43 71-29.21 70.56-26.95L70.56-26.95Q70.29-25.57 70.07-24.36L70.07-24.36Q70.78-25.36 71.67-26.79 72.55-28.21 73.31-29.92L73.31-29.92Q73.37-30.14 73.53-30.47L73.53-30.47Q73.81-31.24 74.22-32.4 74.64-33.55 74.88-34.79 75.13-36.02 75.02-37.07 74.91-38.12 74.25-38.72ZM74.58-12.21L74.58-12.21Q74.64-12.6 74.8-12.73 74.97-12.87 75.19-12.76L75.19-12.76Q75.41-12.65 75.49-12.38 75.57-12.1 75.46-11.82L75.46-11.82Q74.47-8.03 73.34-5.58 72.22-3.14 71.09-1.73 69.96-0.33 68.97 0.28 67.98 0.88 67.21 0.99 66.44 1.1 66 0.94L66 0.94Q65.34 0.71 64.73 0.17 64.13-0.39 63.74-1.4 63.36-2.42 63.25-4.13L63.25-4.13Q62.48-2.81 61.46-1.76 60.45-0.71 59.34-0.3 58.24 0.11 57.17-0.44 56.1-0.99 55.22-2.86L55.22-2.86Q54.56-4.29 54.73-6.6 54.89-8.91 55.6-11.28L55.6-11.28Q56.59-13.92 57.91-15.4 59.23-16.89 60.61-17.38 61.98-17.88 63.09-17.52 64.19-17.16 64.68-16.06L64.68-16.06Q65.17-18.86 66.03-23.18 66.88-27.5 67.43-29.75L67.43-29.75Q68.2-32.84 69.08-35.2 69.96-37.56 71.06-38.8 72.16-40.04 73.59-39.82L73.59-39.82 73.64-39.82Q73.81-39.77 74.19-39.63 74.58-39.49 75.02-39.08 75.46-38.66 75.79-37.9L75.79-37.9Q76.01-37.18 75.87-35.75 75.73-34.32 75.32-32.67 74.91-31.02 74.31-29.64L74.31-29.64Q73.59-27.89 72.82-26.57 72.05-25.25 71.31-24.25 70.56-23.27 69.91-22.55L69.91-22.55Q68.47-15.51 67.79-10.78 67.1-6.05 67.24-3.71 67.38-1.38 68.47-1.38L68.47-1.38Q68.75-1.32 69.33-1.57 69.91-1.81 70.7-2.86 71.5-3.9 72.49-6.13 73.48-8.36 74.58-12.21ZM83.98-12.76L83.98-12.76Q84.04-13.53 83.93-14.85 83.82-16.17 83.49-17.24 83.16-18.32 82.61-18.43L82.61-18.43Q82.12-18.48 82.09-17.82 82.06-17.16 82.31-16.2 82.56-15.23 83.02-14.3 83.49-13.37 83.98-12.76ZM84.97-12.1L84.97-12.1Q86.46-11.33 87.53-11.49 88.61-11.66 89.48-12.87L89.48-12.87Q89.59-12.98 89.7-13.06 89.81-13.14 89.95-13.14 90.09-13.14 90.15-13.09L90.15-13.09Q90.25-13.09 90.34-13.01 90.42-12.93 90.45-12.79 90.47-12.65 90.42-12.43L90.42-12.43Q89.76-11.44 88.74-10.95 87.72-10.45 86.68-10.48 85.64-10.51 84.87-11.05L84.87-11.05Q84.42-6.6 83.41-4.1 82.39-1.59 80.85-0.71 79.31 0.17 77.33-0.22L77.33-0.22Q76.45-0.39 75.84-0.8 75.24-1.21 74.69-2.09L74.69-2.09Q73.98-3.35 73.84-5.31 73.7-7.26 74.03-9.46 74.36-11.66 74.97-13.59 75.57-15.51 76.37-16.66 77.17-17.82 77.99-17.77L77.99-17.77Q78.7-17.6 79.45-17.11 80.19-16.61 80.71-16.11 81.23-15.62 81.23-15.51L81.23-15.51Q80.52-14.19 79.81-12.15 79.09-10.12 78.59-7.95 78.1-5.78 77.99-4.07 77.88-2.37 78.38-1.76L78.38-1.76Q78.65-1.49 79.06-1.38 79.47-1.26 80-1.46 80.52-1.65 81.18-2.37L81.18-2.37Q81.73-3.08 82.34-4.4 82.94-5.72 83.38-7.54 83.82-9.35 83.93-11.61L83.93-11.61Q82.83-12.48 82.17-13.8 81.51-15.13 81.32-16.42 81.13-17.71 81.34-18.59 81.56-19.47 82.17-19.47L82.17-19.47Q82.17-19.47 82.39-19.44 82.61-19.41 82.94-19.25 83.27-19.09 83.63-18.7 83.98-18.32 84.31-17.6L84.31-17.6Q84.64-16.94 84.84-15.26 85.03-13.59 84.97-12.1ZM112.7-12.38L112.7-12.38Q112.81-12.65 112.94-12.71 113.08-12.76 113.25-12.71L113.25-12.71Q113.41-12.65 113.52-12.51 113.63-12.38 113.58-12.1L113.58-12.1Q112.7-8.63 111.21-5.86 109.73-3.08 108.13-1.16 106.54 0.77 105.24 1.76 103.95 2.75 103.46 2.64L103.46 2.64Q103.02 2.75 102.41 2.64 101.81 2.53 101.2 2.25L101.2 2.25Q100.71 2.04 100.79 0.94 100.87-0.17 101.26-1.79 101.64-3.41 102.14-5.12L102.14-5.12Q102.58-6.66 102.91-7.97 103.24-9.29 103.29-10.12L103.29-10.12Q102.85-9.79 102.33-9.05 101.81-8.3 101.2-7.37L101.2-7.37Q100.54-6.21 99.88-5.31 99.22-4.4 98.67-4.18L98.67-4.18Q98.51-4.13 98.01-4.13 97.52-4.13 96.94-4.21 96.36-4.29 96.03-4.57L96.03-4.57Q95.43-5.17 95.37-6.19 95.32-7.21 95.56-8.42 95.81-9.63 96.09-10.72L96.09-10.72Q96.36-11.61 96.47-12.32L96.47-12.32Q96.53-12.65 96.58-12.98L96.58-12.98Q96.75-13.8 96.77-14.38 96.8-14.96 96.53-15.35L96.53-15.35Q95.87-14.69 95.29-13.56 94.71-12.43 94.19-11.05 93.67-9.68 93.17-8.3L93.17-8.3Q92.62-6.66 92.07-5.28 91.52-3.9 90.94-3.08 90.37-2.25 89.71-2.31L89.71-2.31Q89.1-2.37 88.55-2.61 88-2.86 87.62-3.25 87.23-3.63 87.23-4.18L87.23-4.18Q87.23-6.16 87.73-8.99 88.22-11.82 88.8-14.13 89.38-16.45 89.65-17L89.65-17Q89.93-17.11 90.5-17.24 91.08-17.38 91.71-17.38 92.35-17.38 92.76-17.13 93.17-16.89 93.12-16.28L93.12-16.28Q92.68-14.46 92.21-12.32 91.74-10.18 91.44-8.36 91.14-6.54 91.19-5.67L91.19-5.67Q91.58-6.6 92.13-8.2L92.13-8.2Q92.68-9.85 93.39-11.66 94.11-13.47 94.93-14.82 95.76-16.17 96.69-16.55L96.69-16.55Q97.08-16.61 97.54-16.5 98.01-16.39 98.51-16.23L98.51-16.23Q98.51-16.17 98.56-16.17L98.56-16.17Q99.66-15.51 100.07-14.82 100.49-14.13 100.49-13.39 100.49-12.65 100.32-11.82L100.32-11.82Q100.32-11.61 100.27-11.38L100.27-11.38Q100.05-10.12 99.72-8.91L99.72-8.91Q99.44-7.92 99.3-7.26 99.17-6.6 99.33-6.54L99.33-6.54Q99.39-6.38 99.52-6.49 99.66-6.6 99.99-7.04L99.99-7.04Q100.1-7.21 100.27-7.42L100.27-7.42Q100.82-8.25 101.39-9.07 101.97-9.9 102.66-10.53 103.35-11.17 104.09-11.44 104.83-11.71 105.71-11.44L105.71-11.44Q105.71-11.44 105.79-11.41 105.88-11.38 106.01-11.33 106.15-11.28 106.32-11.11 106.48-10.95 106.59-10.72L106.59-10.72Q106.76-10.12 106.23-7.62 105.71-5.12 105.02-2.56 104.34 0 104.06 0.77L104.06 0.77 104.17 0.82Q104.45 0.88 105.41 0.08 106.37-0.71 107.72-2.37 109.07-4.01 110.41-6.52 111.76-9.02 112.7-12.38Z" transform="translate(3.244142770767212, 39.8531494140625)"></path></g></g></g> <!----></g><defs v-gra="od"></defs></svg>